<svg width="398" height="400" xmlns="http://www.w3.org/2000/svg"><path id="shape-flowers" d="M113.32 156.612c3.217-15.294-15.209-26.635-26.833-31.916-17.482-7.938-32.662-3.319-37.694 16.402-1.759 6.909-6.768 35.06-19.659 24.82-3.573-2.832-4.919-7.52.995-9.945-12.269-.164-7.768 15.893 1.843 13.287-1.283 1.114-1.538 2.482-2.572 3.709 4.099.712 18.477.565 15.65-7.056 1.51 4.065-2.019 6.422-5.18 8.345 6.158.548 11.297-4.269 12.784-10.59 1.532-6.513-2.595-11.132-2.097-17.742 1.063-14.027 9.43-22.186 23.39-20.212-2.115 2.487-14.028 9.125-17.075 4.178 5.953 9.668 16.662 9.956 26.375 9.787 8.492-.153 33.449.87 30.073 16.933zm189.535 145.921c13.507 4.014 20.444 2.177 26.89-.113-11.54-12.716-27.173-15.249-41.11-13.756l-.04.639 14.26 13.23zm-.837.826c5.332 13.049 4.184 20.133 2.544 26.77-13.79-10.227-17.854-25.538-17.741-39.548l.633-.108 14.564 12.885zm-209.323 3.454c-13.507 4.014-20.444 2.177-26.895-.113 11.545-12.716 27.178-15.249 41.115-13.75l.033.633-14.253 13.23zm.837.825c-5.332 13.05-4.184 20.134-2.544 26.772 13.79-10.228 17.854-25.539 17.741-39.55l-.633-.101-14.564 12.88zm209.323-210.2c13.507-4.02 20.444-2.176 26.89.108-11.54 12.716-27.173 15.249-41.11 13.756l-.04-.639 14.26-13.224zm-.837-.83c5.332-13.044 4.184-20.128 2.544-26.771-13.79 10.233-17.854 25.538-17.741 39.554l.633.102 14.564-12.885zm-209.323-3.45c-13.507-4.02-20.444-2.176-26.895.108 11.545 12.716 27.178 15.249 41.115 13.756l.033-.639L92.695 93.16zm.837-.83c-5.332-13.044-4.184-20.134-2.544-26.771 13.79 10.227 17.854 25.538 17.741 39.554l-.633.102-14.564-12.885zm85.77 263.934c2.193-1.905 3.68-.735 2.085 2.075-1.594 2.776 2.138 6.898 6.423 7.073 4.054.18 7.294-3.438 7.599-6.954.288-3.726-2.245-8.464-8.096-8.702-5.863-.231-12.699 3.234-13.485 12.45-.769 9.216 7.927 15.961 17.171 16.34 18.477.752 25.94-18.104 25.442-30.904-.684-18.748-8.198-28.756-22.988-35.953-2.68-.345-9.855-5.988-14.836-5.976 2.98 2.108 12.896 7.406 22.842 15.514 9.928 8.34 10.787 22.502 10.001 31.933-.825 9.668-9.803 22.288-20.614 21.847-15.333-.617-14.247-16.216-11.545-18.743zm93.661-198.044c-3.217-15.294 15.21-26.635 26.828-31.916 17.488-7.938 32.668-3.313 37.694 16.402 1.764 6.915 6.774 35.06 19.665 24.826 3.573-2.838 4.918-7.525-.995-9.95 12.268-.165 7.768 15.892-1.844 13.292 1.284 1.108 1.533 2.47 2.573 3.703-4.105.712-18.477.565-15.656-7.05-1.51 4.059 2.024 6.417 5.18 8.339-6.152.548-11.292-4.269-12.779-10.59-1.532-6.513 2.596-11.132 2.092-17.742-1.063-14.027-9.43-22.18-23.384-20.212 2.115 2.493 14.027 9.125 17.075 4.178-5.954 9.668-16.662 9.962-26.376 9.787-8.492-.147-33.454.87-30.073 16.933zm-73.076 26.596c7.978 0 14.452 6.468 14.452 14.446 0 7.983-6.474 14.451-14.452 14.451-7.977 0-14.445-6.468-14.445-14.451 0-7.978 6.468-14.446 14.445-14.446zM339.76 310.85c8.31-6.722 12.093-15.944 24.21-17.9 10.787-1.753 20.953 3.505 32.798.328-13.112 2.595-10.958 15.514-18.42 23.78-8.776 9.713-22.322 5.942-33.432.797 12.23 3.29 24.656-3.94 31.317-14.163-11.302 9.092-26.285 12.179-39.52 8.012l3.047-.854zm-25.726 11.958c-.373-6.366 4.49-11.834 10.867-12.195 6.355-.374 11.822 4.494 12.19 10.85.362 6.377-4.495 11.839-10.867 12.206-6.36.373-11.822-4.49-12.19-10.861zm3.29 15.305c-8.486 6.49-18.346 8.012-23.106 19.32-4.218 10.074-1.51 21.196-7.379 31.96 5.603-12.133 17.663-6.999 27.438-12.297 11.506-6.264 11.037-20.32 8.645-32.323.323 12.66-9.628 23.04-21.134 27.122 11.494-8.854 18.013-22.706 17.08-36.541l-1.543 2.759zm21.248 2.335c6.53 8.47 15.661 12.478 17.33 24.628 1.498 10.822-4.004 20.863-1.103 32.787-2.273-13.179-15.254-11.319-23.345-18.98-9.499-9.006-5.4-22.463 0-33.448-3.585 12.144 3.358 24.747 13.411 31.65-8.803-11.517-11.54-26.573-7.073-39.713l.78 3.076zm4.834-13.62c10.703.294 19.568-4.269 30.05 2.114 9.335 5.683 13.65 16.278 24.725 21.553-11.658-6.536-18.42 4.687-29.451 6.134-12.981 1.668-20.84-9.996-25.946-21.122 7.152 10.437 21.304 13.015 33.013 9.577-14.502-.43-27.89-7.82-35.263-19.585l2.872 1.329zm-284.984-13.84c-8.316-6.723-12.093-15.945-24.21-17.901-10.781-1.753-20.953 3.511-32.803.328 13.117 2.6 10.963 15.514 18.426 23.786 8.775 9.707 22.321 5.936 33.425.797-12.223 3.29-24.65-3.946-31.31-14.163 11.296 9.086 26.284 12.173 39.52 8.012l-3.048-.86zm25.726 11.957c.373-6.36-4.49-11.828-10.867-12.19-6.355-.373-11.822 4.49-12.19 10.85-.362 6.378 4.495 11.834 10.867 12.201 6.36.38 11.822-4.483 12.19-10.86zm-3.29 15.305c8.486 6.497 18.34 8.017 23.106 19.32 4.218 10.08 1.51 21.201 7.379 31.966-5.603-12.138-17.663-6.999-27.439-12.302-11.505-6.26-11.036-20.32-8.644-32.318-.323 12.653 9.628 23.04 21.134 27.116-11.5-8.854-18.013-22.7-17.08-36.535l1.543 2.753zm-21.248 2.34c-6.53 8.465-15.661 12.473-17.33 24.624-1.498 10.821 3.998 20.862 1.103 32.786 2.273-13.173 15.254-11.319 23.345-18.974 9.499-9.007 5.4-22.463 0-33.448 3.585 12.144-3.358 24.747-13.417 31.65 8.815-11.517 11.546-26.579 7.079-39.713l-.78 3.076zm-4.834-13.625c-10.703.3-19.568-4.263-30.05 2.12-9.335 5.682-13.65 16.272-24.725 21.553 11.658-6.542 18.42 4.681 29.451 6.129 12.981 1.673 20.84-9.996 25.946-21.118-7.152 10.432-21.304 13.01-33.019 9.572 14.508-.43 27.896-7.813 35.269-19.585l-2.872 1.329zM339.759 89.156c8.31 6.722 12.093 15.944 24.21 17.9 10.787 1.753 20.953-3.51 32.798-.328-13.112-2.6-10.958-15.52-18.42-23.786-8.776-9.707-22.322-5.936-33.426-.797 12.223-3.29 24.65 3.947 31.31 14.163-11.301-9.091-26.284-12.173-39.52-8.011l3.048.859zm-25.726-11.964c-.373 6.367 4.49 11.834 10.867 12.196 6.355.373 11.822-4.49 12.19-10.85.362-6.378-4.495-11.84-10.867-12.201-6.36-.379-11.822 4.483-12.19 10.855zm3.29-15.299c-8.486-6.496-18.34-8.017-23.106-19.32-4.218-10.08-1.51-21.196-7.379-31.966 5.603 12.139 17.663 7 27.438 12.297 11.506 6.264 11.037 20.326 8.64 32.323.328-12.653-9.623-23.04-21.129-27.116 11.494 8.854 18.013 22.7 17.08 36.535l-1.543-2.753zm21.248-2.34c6.53-8.465 15.656-12.473 17.33-24.623 1.498-10.822-4.004-20.863-1.103-32.787-2.273 13.173-15.254 11.319-23.345 18.974-9.499 9.007-5.4 22.463 0 33.449-3.585-12.145 3.358-24.747 13.417-31.65-8.815 11.516-11.546 26.578-7.08 39.712l.781-3.076zm4.834 13.625c10.703-.3 19.568 4.263 30.05-2.12 9.335-5.682 13.65-16.272 24.725-21.553-11.658 6.542-18.42-4.687-29.451-6.128-12.981-1.674-20.84 9.99-25.946 21.117 7.152-10.432 21.304-13.015 33.013-9.578-14.502.43-27.89 7.82-35.263 19.59l2.872-1.328zM58.421 87.013c-8.316 6.723-12.093 15.944-24.21 17.9-10.787 1.753-20.953-3.505-32.803-.328 13.117-2.6 10.963-15.514 18.426-23.78 8.775-9.713 22.321-5.942 33.425-.797-12.223-3.29-24.65 3.94-31.31 14.163 11.296-9.091 26.284-12.178 39.52-8.017l-3.048.86zm25.726-11.958c.373 6.367-4.49 11.834-10.867 12.196-6.355.373-11.822-4.495-12.19-10.85-.362-6.378 4.495-11.84 10.867-12.207 6.36-.373 11.822 4.49 12.19 10.861zm-3.29-15.305c8.486-6.49 18.34-8.011 23.106-19.32 4.218-10.074 1.51-21.195 7.379-31.96-5.603 12.133-17.663 6.999-27.439 12.297-11.505 6.264-11.036 20.32-8.644 32.323-.323-12.66 9.628-23.04 21.134-27.122-11.5 8.854-18.013 22.706-17.08 36.541l1.543-2.759zm-21.248-2.335c-6.53-8.464-15.661-12.478-17.33-24.628C40.782 21.965 46.278 11.924 43.383 0c2.273 13.18 15.254 11.32 23.345 18.98 9.499 9.007 5.4 22.463 0 33.448 3.585-12.144-3.358-24.747-13.417-31.65 8.81 11.511 11.546 26.573 7.079 39.707l-.78-3.07zm-4.834 13.62c-10.703-.294-19.568 4.269-30.05-2.114C15.39 63.239 11.074 52.643 0 47.368c11.658 6.536 18.42-4.687 29.451-6.134 12.981-1.668 20.84 9.996 25.946 21.123-7.152-10.437-21.304-13.016-33.019-9.578 14.508.43 27.896 7.82 35.269 19.585l-2.872-1.329zm170.26 135.959c23.56 9.266 38.69 27.438 67.486 23.198 25.623-3.738 44.857-22.876 73.896-24.109-31.475 3.46-35.835-27.274-58.603-40.645-26.737-15.684-54.679 2.499-76.113 22.027 25.273-16.142 58.535-8.656 80.862 9.685-32.012-12.49-68.095-8.746-95.03 10.075l7.503-.231zM186.59 63.866c-.214-16.447 5.343-27.66 21.79-36.7 11.218-6.19 31.413-7.994 39.04 8.849 3.817 8.424 1.697 19.223-6.88 22.683-8.589 3.438-14.757-1.114-17.177-6.457-2.42-5.337.667-9.724 4.133-11.143 3.274-1.306 7.967-.034 9.629 3.663 1.77 3.913-.238 9.092-3.438 8.916-3.228-.158-3.601 1.697-.916 2.8 3.472 1.277 17.895-4.761 11.557-18.738-4.461-9.86-19.772-12.207-28.778-8.6-8.78 3.54-21.044 10.67-24.035 23.283-2.776 12.53-3.053 23.77-3.596 27.376-2.244-4.438-.43-13.382-1.329-15.932zm120.49 200.31c-.215-16.447 5.349-27.658 21.79-36.693 11.217-6.197 31.413-8 39.04 8.843 3.822 8.43 1.702 19.228-6.88 22.683-8.583 3.438-14.757-1.108-17.177-6.457-2.42-5.331.673-9.724 4.133-11.138 3.273-1.312 7.972-.04 9.628 3.664 1.77 3.901-.237 9.086-3.432 8.91-3.234-.158-3.607 1.697-.915 2.805 3.471 1.272 17.888-4.767 11.55-18.743-4.46-9.855-19.771-12.207-28.778-8.6-8.775 3.54-21.044 10.675-24.029 23.289-2.776 12.529-3.053 23.763-3.601 27.376-2.245-4.444-.424-13.388-1.329-15.938zm-214.446-9.255c-3.007 14.095-9.922 22.599-25.73 27.15-10.788 3.121-28.4.758-31.656-15.113-1.634-7.949 2.261-16.769 10.273-18.064 7.994-1.278 12.387 3.805 13.428 8.843 1.034 5.032-2.454 8.187-5.688 8.73-3.053.486-6.813-1.516-7.525-4.993-.758-3.686 1.956-7.729 4.67-6.96 2.714.763 3.409-.752 1.317-2.216-2.72-1.764-16.21.605-13.501 13.784 1.905 9.284 14.541 14.26 22.926 12.913 8.198-1.328 20.066-5.054 25.052-15.248 4.8-10.177 7.215-19.726 8.374-22.723 1.074 4.246-2.222 11.54-1.94 13.897zm124.369-38.152c20.478 14.87 43.93 17.923 55.871 44.445 10.579 23.622 4.806 50.122 19.336 75.293-13.982-28.434-42.24-15.571-65.72-27.557-27.654-14.146-27.326-47.516-22.362-76.068-.056 30.01 24.154 53.995 51.643 63.007-27.732-20.292-43.999-52.745-42.58-85.572l3.811 6.451zm-25.403 8.582c-4.348 24.928 3.234 47.323-15.334 69.724-16.549 19.901-42.879 26.38-59.094 50.495 19.376-25.07-4.613-44.773-4.184-71.137.543-31.057 30.65-45.458 58.467-53.56-26.969 13.163-37.853 45.452-33.838 74.1 5.998-33.827 27.986-62.718 58.088-75.892l-4.105 6.27zm-22.322-10.363c-24.741 5.309-42.658 20.738-70.39 11.918-24.646-7.887-40.528-29.87-68.95-35.862 30.497 8.577 39.78-21.061 64.38-30.543 28.982-11.126 53.622 11.382 71.567 34.144-22.316-20.082-56.335-18.07-81.393-3.613 33.63-7.107 68.644 2.443 92.136 25.42l-7.35-1.464zm26.455-40.018c-3.133-25.166 5.563-47.13-11.902-70.38-15.52-20.738-41.516-28.45-56.51-53.412 18.12 25.997-6.83 44.508-7.678 70.905-.99 31.006 28.348 46.854 55.77 56.33-26.28-14.468-35.597-47.29-30.186-75.683 4.359 34.121 24.87 64.047 54.288 78.696l-3.782-6.456zm28.23 8.842c17.227-18.63 39.633-26.132 46.146-54.458 5.824-25.284-4.998-50.099 4.354-77.661-8.193 30.604-38.435 23.509-59.134 39.843-24.329 19.251-17.538 51.885-7.107 78.973-5.891-29.434 13.19-57.692 38.384-71.872-23.277 25.323-32.888 60.242-25.137 92.237l2.493-7.062z" fill="#fff" fill-rule="evenodd"/></svg>